{"glyphs":{"0":{"ha":610,"x_min":0,"x_max":543,"o":"m 0 441 l 34 475 l 136 373 l 136 170 l 34 68 l 0 102 l 0 441 m 0 848 l 34 882 l 136 780 l 136 576 l 34 475 l 0 509 l 0 848 m 441 949 l 475 916 l 373 814 l 170 814 l 68 916 l 102 949 l 441 949 m 543 509 l 509 475 l 407 576 l 407 780 l 509 882 l 543 848 l 543 509 m 543 102 l 509 68 l 407 170 l 407 373 l 509 475 l 543 441 l 543 102 m 102 0 l 68 34 l 170 136 l 373 136 l 475 34 l 441 0 l 102 0 z "},"1":{"ha":610,"x_min":407,"x_max":543,"o":"m 543 509 l 509 475 l 407 576 l 407 780 l 509 882 l 543 848 l 543 509 m 543 102 l 509 68 l 407 170 l 407 373 l 509 475 l 543 441 l 543 102 z "},"2":{"ha":610,"x_min":0,"x_max":543,"o":"m 0 441 l 34 475 l 136 373 l 136 170 l 34 68 l 0 102 l 0 441 m 441 949 l 475 916 l 373 814 l 170 814 l 68 916 l 102 949 l 441 949 m 543 509 l 509 475 l 407 576 l 407 780 l 509 882 l 543 848 l 543 509 m 102 0 l 68 34 l 170 136 l 373 136 l 475 34 l 441 0 l 102 0 m 102 475 l 170 543 l 373 543 l 441 475 l 373 407 l 170 407 l 102 475 z "},"3":{"ha":610,"x_min":68,"x_max":543,"o":"m 441 949 l 475 916 l 373 814 l 170 814 l 68 916 l 102 949 l 441 949 m 543 509 l 509 475 l 407 576 l 407 780 l 509 882 l 543 848 l 543 509 m 543 102 l 509 68 l 407 170 l 407 373 l 509 475 l 543 441 l 543 102 m 102 0 l 68 34 l 170 136 l 373 136 l 475 34 l 441 0 l 102 0 m 102 475 l 170 543 l 373 543 l 441 475 l 373 407 l 170 407 l 102 475 z "},"4":{"ha":610,"x_min":0,"x_max":543,"o":"m 0 848 l 34 882 l 136 780 l 136 576 l 34 475 l 0 509 l 0 848 m 543 509 l 509 475 l 407 576 l 407 780 l 509 882 l 543 848 l 543 509 m 543 102 l 509 68 l 407 170 l 407 373 l 509 475 l 543 441 l 543 102 m 102 475 l 170 543 l 373 543 l 441 475 l 373 407 l 170 407 l 102 475 z "},"5":{"ha":610,"x_min":0,"x_max":543,"o":"m 0 848 l 34 882 l 136 780 l 136 576 l 34 475 l 0 509 l 0 848 m 441 949 l 475 916 l 373 814 l 170 814 l 68 916 l 102 949 l 441 949 m 543 102 l 509 68 l 407 170 l 407 373 l 509 475 l 543 441 l 543 102 m 102 0 l 68 34 l 170 136 l 373 136 l 475 34 l 441 0 l 102 0 m 102 475 l 170 543 l 373 543 l 441 475 l 373 407 l 170 407 l 102 475 z "},"6":{"ha":610,"x_min":0,"x_max":543,"o":"m 0 441 l 34 475 l 136 373 l 136 170 l 34 68 l 0 102 l 0 441 m 0 848 l 34 882 l 136 780 l 136 576 l 34 475 l 0 509 l 0 848 m 441 949 l 475 916 l 373 814 l 170 814 l 68 916 l 102 949 l 441 949 m 543 102 l 509 68 l 407 170 l 407 373 l 509 475 l 543 441 l 543 102 m 102 0 l 68 34 l 170 136 l 373 136 l 475 34 l 441 0 l 102 0 m 102 475 l 170 543 l 373 543 l 441 475 l 373 407 l 170 407 l 102 475 z "},"7":{"ha":610,"x_min":0,"x_max":543,"o":"m 0 848 l 34 882 l 136 780 l 136 576 l 34 475 l 0 509 l 0 848 m 441 949 l 475 916 l 373 814 l 170 814 l 68 916 l 102 949 l 441 949 m 543 509 l 509 475 l 407 576 l 407 780 l 509 882 l 543 848 l 543 509 m 543 102 l 509 68 l 407 170 l 407 373 l 509 475 l 543 441 l 543 102 z "},"8":{"ha":610,"x_min":0,"x_max":543,"o":"m 0 441 l 34 475 l 136 373 l 136 170 l 34 68 l 0 102 l 0 441 m 0 848 l 34 882 l 136 780 l 136 576 l 34 475 l 0 509 l 0 848 m 441 949 l 475 916 l 373 814 l 170 814 l 68 916 l 102 949 l 441 949 m 543 509 l 509 475 l 407 576 l 407 780 l 509 882 l 543 848 l 543 509 m 543 102 l 509 68 l 407 170 l 407 373 l 509 475 l 543 441 l 543 102 m 102 0 l 68 34 l 170 136 l 373 136 l 475 34 l 441 0 l 102 0 m 102 475 l 170 543 l 373 543 l 441 475 l 373 407 l 170 407 l 102 475 z "},"9":{"ha":610,"x_min":0,"x_max":543,"o":"m 0 848 l 34 882 l 136 780 l 136 576 l 34 475 l 0 509 l 0 848 m 441 949 l 475 916 l 373 814 l 170 814 l 68 916 l 102 949 l 441 949 m 543 509 l 509 475 l 407 576 l 407 780 l 509 882 l 543 848 l 543 509 m 543 102 l 509 68 l 407 170 l 407 373 l 509 475 l 543 441 l 543 102 m 102 0 l 68 34 l 170 136 l 373 136 l 475 34 l 441 0 l 102 0 m 102 475 l 170 543 l 373 543 l 441 475 l 373 407 l 170 407 l 102 475 z "},"\u0000":{"ha":0,"x_min":0,"x_max":0,"o":""}," ":{"ha":345,"x_min":0,"x_max":0,"o":""},"!":{"ha":610,"x_min":68,"x_max":543,"o":"m 543 509 l 509 475 l 407 576 l 407 780 l 509 882 l 543 848 l 543 509 m 102 0 l 68 34 l 170 136 l 373 136 l 475 34 l 441 0 l 102 0 z "},"\"":{"ha":610,"x_min":0,"x_max":543,"o":"m 0 848 l 34 882 l 136 780 l 136 576 l 34 475 l 0 509 l 0 848 m 543 509 l 509 475 l 407 576 l 407 780 l 509 882 l 543 848 l 543 509 z "},"$":{"ha":1085,"x_min":0,"x_max":1017,"o":"m 0 848 l 34 882 l 136 780 l 136 576 l 34 475 l 0 509 l 0 848 m 441 949 l 475 916 l 373 814 l 170 814 l 68 916 l 102 949 l 441 949 m 102 0 l 68 34 l 170 136 l 373 136 l 475 34 l 441 0 l 102 0 m 102 475 l 170 543 l 373 543 l 441 475 l 373 407 l 170 407 l 102 475 m 1017 102 l 983 68 l 882 170 l 882 373 l 983 475 l 1017 441 l 1017 102 m 916 949 l 949 916 l 848 814 l 644 814 l 543 916 l 576 949 l 916 949 m 576 0 l 543 34 l 644 136 l 848 136 l 949 34 l 916 0 l 576 0 m 848 407 l 644 407 l 576 475 l 644 543 l 848 543 l 916 475 l 848 407 m 509 475 l 441 543 l 441 814 l 509 882 l 576 814 l 576 543 l 509 475 m 509 68 l 441 136 l 441 407 l 509 475 l 576 407 l 576 136 l 509 68 z "},"%":{"ha":1085,"x_min":0,"x_max":1017,"o":"m 0 441 l 34 475 l 136 373 l 136 170 l 34 68 l 0 102 l 0 441 m 102 475 l 170 543 l 373 543 l 441 475 l 373 407 l 170 407 l 102 475 m 1017 509 l 983 475 l 882 576 l 882 780 l 983 882 l 1017 848 l 1017 509 m 848 407 l 644 407 l 576 475 l 644 543 l 848 543 l 916 475 l 848 407 m 441 949 l 475 916 l 373 814 l 170 814 l 68 916 l 102 949 l 441 949 m 576 0 l 543 34 l 644 136 l 848 136 l 949 34 l 916 0 l 576 0 z "},"&":{"ha":1085,"x_min":0,"x_max":949,"o":"m 0 441 l 34 475 l 136 373 l 136 170 l 34 68 l 0 102 l 0 441 m 0 848 l 34 882 l 136 780 l 136 576 l 34 475 l 0 509 l 0 848 m 441 949 l 475 916 l 373 814 l 170 814 l 68 916 l 102 949 l 441 949 m 102 0 l 68 34 l 170 136 l 373 136 l 475 34 l 441 0 l 102 0 m 102 475 l 170 543 l 373 543 l 441 475 l 373 407 l 170 407 l 102 475 m 576 0 l 543 34 l 644 136 l 848 136 l 949 34 l 916 0 l 576 0 m 848 407 l 644 407 l 576 475 l 644 543 l 848 543 l 916 475 l 848 407 m 509 475 l 441 543 l 441 814 l 509 882 l 576 814 l 576 543 l 509 475 m 509 68 l 441 136 l 441 407 l 509 475 l 576 407 l 576 136 l 509 68 z "},"'":{"ha":610,"x_min":407,"x_max":543,"o":"m 543 509 l 509 475 l 407 576 l 407 780 l 509 882 l 543 848 l 543 509 z "},"(":{"ha":610,"x_min":0,"x_max":475,"o":"m 0 441 l 34 475 l 136 373 l 136 170 l 34 68 l 0 102 l 0 441 m 0 848 l 34 882 l 136 780 l 136 576 l 34 475 l 0 509 l 0 848 m 441 949 l 475 916 l 373 814 l 170 814 l 68 916 l 102 949 l 441 949 m 102 0 l 68 34 l 170 136 l 373 136 l 475 34 l 441 0 l 102 0 z "},")":{"ha":610,"x_min":68,"x_max":543,"o":"m 441 949 l 475 916 l 373 814 l 170 814 l 68 916 l 102 949 l 441 949 m 543 509 l 509 475 l 407 576 l 407 780 l 509 882 l 543 848 l 543 509 m 543 102 l 509 68 l 407 170 l 407 373 l 509 475 l 543 441 l 543 102 m 102 0 l 68 34 l 170 136 l 373 136 l 475 34 l 441 0 l 102 0 z "},"*":{"ha":1085,"x_min":102,"x_max":916,"o":"m 102 475 l 170 543 l 373 543 l 441 475 l 373 407 l 170 407 l 102 475 m 509 475 l 441 543 l 441 814 l 509 882 l 576 814 l 576 543 l 509 475 m 509 68 l 441 136 l 441 407 l 509 475 l 576 407 l 576 136 l 509 68 m 848 407 l 644 407 l 576 475 l 644 543 l 848 543 l 916 475 l 848 407 z "},"+":{"ha":1085,"x_min":102,"x_max":916,"o":"m 102 475 l 170 543 l 373 543 l 441 475 l 373 407 l 170 407 l 102 475 m 509 475 l 441 543 l 441 814 l 509 882 l 576 814 l 576 543 l 509 475 m 509 68 l 441 136 l 441 407 l 509 475 l 576 407 l 576 136 l 509 68 m 848 407 l 644 407 l 576 475 l 644 543 l 848 543 l 916 475 l 848 407 z "},",":{"ha":610,"x_min":68,"x_max":543,"o":"m 543 102 l 509 68 l 407 170 l 407 373 l 509 475 l 543 441 l 543 102 m 102 0 l 68 34 l 170 136 l 373 136 l 475 34 l 441 0 l 102 0 z "},"-":{"ha":1085,"x_min":102,"x_max":916,"o":"m 102 475 l 170 543 l 373 543 l 441 475 l 373 407 l 170 407 l 102 475 m 848 407 l 644 407 l 576 475 l 644 543 l 848 543 l 916 475 l 848 407 z "},".":{"ha":610,"x_min":68,"x_max":475,"o":"m 102 0 l 68 34 l 170 136 l 373 136 l 475 34 l 441 0 l 102 0 z "},"/":{"ha":1085,"x_min":0,"x_max":1017,"o":"m 0 441 l 34 475 l 136 373 l 136 170 l 34 68 l 0 102 l 0 441 m 102 475 l 170 543 l 373 543 l 441 475 l 373 407 l 170 407 l 102 475 m 1017 509 l 983 475 l 882 576 l 882 780 l 983 882 l 1017 848 l 1017 509 m 848 407 l 644 407 l 576 475 l 644 543 l 848 543 l 916 475 l 848 407 z "},":":{"ha":610,"x_min":203,"x_max":339,"o":"m 271 746 q 319 726 299 746 q 339 678 339 706 q 319 630 339 650 q 271 610 299 610 q 223 630 243 610 q 203 678 203 650 q 223 726 203 706 q 271 746 243 746 m 271 339 q 319 319 299 339 q 339 271 339 299 q 319 223 339 243 q 271 203 299 203 q 223 223 243 203 q 203 271 203 243 q 223 319 203 299 q 271 339 243 339 z "},";":{"ha":610,"x_min":203,"x_max":339,"o":"m 271 746 q 319 726 299 746 q 339 678 339 706 q 319 630 339 650 q 271 610 299 610 q 223 630 243 610 q 203 678 203 650 q 223 726 203 706 q 271 746 243 746 m 271 339 q 319 319 299 339 q 339 271 339 299 q 319 223 339 243 q 271 203 299 203 q 223 223 243 203 q 203 271 203 243 q 223 319 203 299 q 271 339 243 339 z "},"<":{"ha":610,"x_min":102,"x_max":543,"o":"m 543 509 l 509 475 l 407 576 l 407 780 l 509 882 l 543 848 l 543 509 m 543 102 l 509 68 l 407 170 l 407 373 l 509 475 l 543 441 l 543 102 m 102 475 l 170 543 l 373 543 l 441 475 l 373 407 l 170 407 l 102 475 z "},"=":{"ha":1085,"x_min":68,"x_max":949,"o":"m 102 0 l 68 34 l 170 136 l 373 136 l 475 34 l 441 0 l 102 0 m 102 475 l 170 543 l 373 543 l 441 475 l 373 407 l 170 407 l 102 475 m 576 0 l 543 34 l 644 136 l 848 136 l 949 34 l 916 0 l 576 0 m 848 407 l 644 407 l 576 475 l 644 543 l 848 543 l 916 475 l 848 407 z "},">":{"ha":610,"x_min":0,"x_max":441,"o":"m 0 441 l 34 475 l 136 373 l 136 170 l 34 68 l 0 102 l 0 441 m 0 848 l 34 882 l 136 780 l 136 576 l 34 475 l 0 509 l 0 848 m 102 475 l 170 543 l 373 543 l 441 475 l 373 407 l 170 407 l 102 475 z "},"?":{"ha":610,"x_min":68,"x_max":543,"o":"m 441 949 l 475 916 l 373 814 l 170 814 l 68 916 l 102 949 l 441 949 m 543 509 l 509 475 l 407 576 l 407 780 l 509 882 l 543 848 l 543 509 m 102 0 l 68 34 l 170 136 l 373 136 l 475 34 l 441 0 l 102 0 m 102 475 l 170 543 l 373 543 l 441 475 l 373 407 l 170 407 l 102 475 z "},"@":{"ha":1085,"x_min":0,"x_max":1017,"o":"m 0 441 l 34 475 l 136 373 l 136 170 l 34 68 l 0 102 l 0 441 m 0 848 l 34 882 l 136 780 l 136 576 l 34 475 l 0 509 l 0 848 m 441 949 l 475 916 l 373 814 l 170 814 l 68 916 l 102 949 l 441 949 m 102 0 l 68 34 l 170 136 l 373 136 l 475 34 l 441 0 l 102 0 m 102 475 l 170 543 l 373 543 l 441 475 l 373 407 l 170 407 l 102 475 m 916 949 l 949 916 l 848 814 l 644 814 l 543 916 l 576 949 l 916 949 m 576 0 l 543 34 l 644 136 l 848 136 l 949 34 l 916 0 l 576 0 m 848 407 l 644 407 l 576 475 l 644 543 l 848 543 l 916 475 l 848 407 m 1017 102 l 983 68 l 882 170 l 882 373 l 983 475 l 1017 441 l 1017 102 m 1017 509 l 983 475 l 882 576 l 882 780 l 983 882 l 1017 848 l 1017 509 z "},"A":{"ha":1085,"x_min":0,"x_max":1017,"o":"m 0 441 l 34 475 l 136 373 l 136 170 l 34 68 l 0 102 l 0 441 m 0 848 l 34 882 l 136 780 l 136 576 l 34 475 l 0 509 l 0 848 m 441 949 l 475 916 l 373 814 l 170 814 l 68 916 l 102 949 l 441 949 m 102 475 l 170 543 l 373 543 l 441 475 l 373 407 l 170 407 l 102 475 m 1017 102 l 983 68 l 882 170 l 882 373 l 983 475 l 1017 441 l 1017 102 m 1017 509 l 983 475 l 882 576 l 882 780 l 983 882 l 1017 848 l 1017 509 m 916 949 l 949 916 l 848 814 l 644 814 l 543 916 l 576 949 l 916 949 m 848 407 l 644 407 l 576 475 l 644 543 l 848 543 l 916 475 l 848 407 z "},"B":{"ha":1085,"x_min":0,"x_max":1017,"o":"m 0 441 l 34 475 l 136 373 l 136 170 l 34 68 l 0 102 l 0 441 m 0 848 l 34 882 l 136 780 l 136 576 l 34 475 l 0 509 l 0 848 m 441 949 l 475 916 l 373 814 l 170 814 l 68 916 l 102 949 l 441 949 m 102 0 l 68 34 l 170 136 l 373 136 l 475 34 l 441 0 l 102 0 m 102 475 l 170 543 l 373 543 l 441 475 l 373 407 l 170 407 l 102 475 m 509 475 l 441 543 l 441 814 l 509 882 l 576 814 l 576 543 l 509 475 m 1017 102 l 983 68 l 882 170 l 882 373 l 983 475 l 1017 441 l 1017 102 m 576 0 l 543 34 l 644 136 l 848 136 l 949 34 l 916 0 l 576 0 m 848 407 l 644 407 l 576 475 l 644 543 l 848 543 l 916 475 l 848 407 z "},"C":{"ha":1085,"x_min":0,"x_max":949,"o":"m 0 441 l 34 475 l 136 373 l 136 170 l 34 68 l 0 102 l 0 441 m 0 848 l 34 882 l 136 780 l 136 576 l 34 475 l 0 509 l 0 848 m 441 949 l 475 916 l 373 814 l 170 814 l 68 916 l 102 949 l 441 949 m 102 0 l 68 34 l 170 136 l 373 136 l 475 34 l 441 0 l 102 0 m 916 949 l 949 916 l 848 814 l 644 814 l 543 916 l 576 949 l 916 949 m 576 0 l 543 34 l 644 136 l 848 136 l 949 34 l 916 0 l 576 0 z "},"D":{"ha":1085,"x_min":0,"x_max":1017,"o":"m 0 441 l 34 475 l 136 373 l 136 170 l 34 68 l 0 102 l 0 441 m 0 848 l 34 882 l 136 780 l 136 576 l 34 475 l 0 509 l 0 848 m 441 949 l 475 916 l 373 814 l 170 814 l 68 916 l 102 949 l 441 949 m 102 0 l 68 34 l 170 136 l 373 136 l 475 34 l 441 0 l 102 0 m 509 68 l 441 136 l 441 407 l 509 475 l 576 407 l 576 136 l 509 68 m 1017 509 l 983 475 l 882 576 l 882 780 l 983 882 l 1017 848 l 1017 509 m 916 949 l 949 916 l 848 814 l 644 814 l 543 916 l 576 949 l 916 949 m 848 407 l 644 407 l 576 475 l 644 543 l 848 543 l 916 475 l 848 407 z "},"E":{"ha":1085,"x_min":0,"x_max":949,"o":"m 0 441 l 34 475 l 136 373 l 136 170 l 34 68 l 0 102 l 0 441 m 0 848 l 34 882 l 136 780 l 136 576 l 34 475 l 0 509 l 0 848 m 441 949 l 475 916 l 373 814 l 170 814 l 68 916 l 102 949 l 441 949 m 102 0 l 68 34 l 170 136 l 373 136 l 475 34 l 441 0 l 102 0 m 102 475 l 170 543 l 373 543 l 441 475 l 373 407 l 170 407 l 102 475 m 916 949 l 949 916 l 848 814 l 644 814 l 543 916 l 576 949 l 916 949 m 576 0 l 543 34 l 644 136 l 848 136 l 949 34 l 916 0 l 576 0 m 848 407 l 644 407 l 576 475 l 644 543 l 848 543 l 916 475 l 848 407 z "},"F":{"ha":1085,"x_min":0,"x_max":949,"o":"m 0 441 l 34 475 l 136 373 l 136 170 l 34 68 l 0 102 l 0 441 m 0 848 l 34 882 l 136 780 l 136 576 l 34 475 l 0 509 l 0 848 m 441 949 l 475 916 l 373 814 l 170 814 l 68 916 l 102 949 l 441 949 m 102 475 l 170 543 l 373 543 l 441 475 l 373 407 l 170 407 l 102 475 m 916 949 l 949 916 l 848 814 l 644 814 l 543 916 l 576 949 l 916 949 m 848 407 l 644 407 l 576 475 l 644 543 l 848 543 l 916 475 l 848 407 z "},"G":{"ha":1085,"x_min":0,"x_max":1017,"o":"m 0 441 l 34 475 l 136 373 l 136 170 l 34 68 l 0 102 l 0 441 m 0 848 l 34 882 l 136 780 l 136 576 l 34 475 l 0 509 l 0 848 m 441 949 l 475 916 l 373 814 l 170 814 l 68 916 l 102 949 l 441 949 m 102 0 l 68 34 l 170 136 l 373 136 l 475 34 l 441 0 l 102 0 m 1017 102 l 983 68 l 882 170 l 882 373 l 983 475 l 1017 441 l 1017 102 m 916 949 l 949 916 l 848 814 l 644 814 l 543 916 l 576 949 l 916 949 m 576 0 l 543 34 l 644 136 l 848 136 l 949 34 l 916 0 l 576 0 m 848 407 l 644 407 l 576 475 l 644 543 l 848 543 l 916 475 l 848 407 z "},"H":{"ha":1085,"x_min":0,"x_max":1017,"o":"m 0 441 l 34 475 l 136 373 l 136 170 l 34 68 l 0 102 l 0 441 m 0 848 l 34 882 l 136 780 l 136 576 l 34 475 l 0 509 l 0 848 m 102 475 l 170 543 l 373 543 l 441 475 l 373 407 l 170 407 l 102 475 m 1017 102 l 983 68 l 882 170 l 882 373 l 983 475 l 1017 441 l 1017 102 m 1017 509 l 983 475 l 882 576 l 882 780 l 983 882 l 1017 848 l 1017 509 m 848 407 l 644 407 l 576 475 l 644 543 l 848 543 l 916 475 l 848 407 z "},"I":{"ha":1085,"x_min":68,"x_max":949,"o":"m 441 949 l 475 916 l 373 814 l 170 814 l 68 916 l 102 949 l 441 949 m 102 0 l 68 34 l 170 136 l 373 136 l 475 34 l 441 0 l 102 0 m 509 475 l 441 543 l 441 814 l 509 882 l 576 814 l 576 543 l 509 475 m 509 68 l 441 136 l 441 407 l 509 475 l 576 407 l 576 136 l 509 68 m 916 949 l 949 916 l 848 814 l 644 814 l 543 916 l 576 949 l 916 949 m 576 0 l 543 34 l 644 136 l 848 136 l 949 34 l 916 0 l 576 0 z "},"J":{"ha":1085,"x_min":0,"x_max":1017,"o":"m 0 441 l 34 475 l 136 373 l 136 170 l 34 68 l 0 102 l 0 441 m 102 0 l 68 34 l 170 136 l 373 136 l 475 34 l 441 0 l 102 0 m 1017 102 l 983 68 l 882 170 l 882 373 l 983 475 l 1017 441 l 1017 102 m 1017 509 l 983 475 l 882 576 l 882 780 l 983 882 l 1017 848 l 1017 509 m 916 949 l 949 916 l 848 814 l 644 814 l 543 916 l 576 949 l 916 949 m 576 0 l 543 34 l 644 136 l 848 136 l 949 34 l 916 0 l 576 0 z "},"K":{"ha":1085,"x_min":0,"x_max":1017,"o":"m 0 441 l 34 475 l 136 373 l 136 170 l 34 68 l 0 102 l 0 441 m 0 848 l 34 882 l 136 780 l 136 576 l 34 475 l 0 509 l 0 848 m 102 475 l 170 543 l 373 543 l 441 475 l 373 407 l 170 407 l 102 475 m 509 68 l 441 136 l 441 407 l 509 475 l 576 407 l 576 136 l 509 68 m 1017 509 l 983 475 l 882 576 l 882 780 l 983 882 l 1017 848 l 1017 509 m 576 0 l 543 34 l 644 136 l 848 136 l 949 34 l 916 0 l 576 0 m 848 407 l 644 407 l 576 475 l 644 543 l 848 543 l 916 475 l 848 407 z "},"L":{"ha":1085,"x_min":0,"x_max":1017,"o":"m 0 441 l 34 475 l 136 373 l 136 170 l 34 68 l 0 102 l 0 441 m 0 848 l 34 882 l 136 780 l 136 576 l 34 475 l 0 509 l 0 848 m 102 0 l 68 34 l 170 136 l 373 136 l 475 34 l 441 0 l 102 0 m 1017 102 l 983 68 l 882 170 l 882 373 l 983 475 l 1017 441 l 1017 102 m 576 0 l 543 34 l 644 136 l 848 136 l 949 34 l 916 0 l 576 0 z "},"M":{"ha":1085,"x_min":0,"x_max":1017,"o":"m 0 441 l 34 475 l 136 373 l 136 170 l 34 68 l 0 102 l 0 441 m 0 848 l 34 882 l 136 780 l 136 576 l 34 475 l 0 509 l 0 848 m 441 949 l 475 916 l 373 814 l 170 814 l 68 916 l 102 949 l 441 949 m 509 475 l 441 543 l 441 814 l 509 882 l 576 814 l 576 543 l 509 475 m 509 68 l 441 136 l 441 407 l 509 475 l 576 407 l 576 136 l 509 68 m 1017 102 l 983 68 l 882 170 l 882 373 l 983 475 l 1017 441 l 1017 102 m 1017 509 l 983 475 l 882 576 l 882 780 l 983 882 l 1017 848 l 1017 509 m 916 949 l 949 916 l 848 814 l 644 814 l 543 916 l 576 949 l 916 949 z "},"N":{"ha":1085,"x_min":0,"x_max":1017,"o":"m 0 441 l 34 475 l 136 373 l 136 170 l 34 68 l 0 102 l 0 441 m 0 848 l 34 882 l 136 780 l 136 576 l 34 475 l 0 509 l 0 848 m 441 949 l 475 916 l 373 814 l 170 814 l 68 916 l 102 949 l 441 949 m 509 475 l 441 543 l 441 814 l 509 882 l 576 814 l 576 543 l 509 475 m 509 68 l 441 136 l 441 407 l 509 475 l 576 407 l 576 136 l 509 68 m 1017 102 l 983 68 l 882 170 l 882 373 l 983 475 l 1017 441 l 1017 102 m 1017 509 l 983 475 l 882 576 l 882 780 l 983 882 l 1017 848 l 1017 509 m 576 0 l 543 34 l 644 136 l 848 136 l 949 34 l 916 0 l 576 0 z "},"O":{"ha":1085,"x_min":0,"x_max":1017,"o":"m 0 441 l 34 475 l 136 373 l 136 170 l 34 68 l 0 102 l 0 441 m 0 848 l 34 882 l 136 780 l 136 576 l 34 475 l 0 509 l 0 848 m 441 949 l 475 916 l 373 814 l 170 814 l 68 916 l 102 949 l 441 949 m 102 0 l 68 34 l 170 136 l 373 136 l 475 34 l 441 0 l 102 0 m 1017 102 l 983 68 l 882 170 l 882 373 l 983 475 l 1017 441 l 1017 102 m 1017 509 l 983 475 l 882 576 l 882 780 l 983 882 l 1017 848 l 1017 509 m 916 949 l 949 916 l 848 814 l 644 814 l 543 916 l 576 949 l 916 949 m 576 0 l 543 34 l 644 136 l 848 136 l 949 34 l 916 0 l 576 0 z "},"P":{"ha":1085,"x_min":0,"x_max":1017,"o":"m 0 441 l 34 475 l 136 373 l 136 170 l 34 68 l 0 102 l 0 441 m 0 848 l 34 882 l 136 780 l 136 576 l 34 475 l 0 509 l 0 848 m 441 949 l 475 916 l 373 814 l 170 814 l 68 916 l 102 949 l 441 949 m 102 475 l 170 543 l 373 543 l 441 475 l 373 407 l 170 407 l 102 475 m 1017 509 l 983 475 l 882 576 l 882 780 l 983 882 l 1017 848 l 1017 509 m 916 949 l 949 916 l 848 814 l 644 814 l 543 916 l 576 949 l 916 949 m 848 407 l 644 407 l 576 475 l 644 543 l 848 543 l 916 475 l 848 407 z "},"Q":{"ha":1085,"x_min":0,"x_max":1017,"o":"m 0 441 l 34 475 l 136 373 l 136 170 l 34 68 l 0 102 l 0 441 m 0 848 l 34 882 l 136 780 l 136 576 l 34 475 l 0 509 l 0 848 m 441 949 l 475 916 l 373 814 l 170 814 l 68 916 l 102 949 l 441 949 m 102 0 l 68 34 l 170 136 l 373 136 l 475 34 l 441 0 l 102 0 m 509 68 l 441 136 l 441 407 l 509 475 l 576 407 l 576 136 l 509 68 m 1017 102 l 983 68 l 882 170 l 882 373 l 983 475 l 1017 441 l 1017 102 m 1017 509 l 983 475 l 882 576 l 882 780 l 983 882 l 1017 848 l 1017 509 m 916 949 l 949 916 l 848 814 l 644 814 l 543 916 l 576 949 l 916 949 m 576 0 l 543 34 l 644 136 l 848 136 l 949 34 l 916 0 l 576 0 z "},"R":{"ha":1085,"x_min":0,"x_max":1017,"o":"m 0 441 l 34 475 l 136 373 l 136 170 l 34 68 l 0 102 l 0 441 m 0 848 l 34 882 l 136 780 l 136 576 l 34 475 l 0 509 l 0 848 m 441 949 l 475 916 l 373 814 l 170 814 l 68 916 l 102 949 l 441 949 m 102 475 l 170 543 l 373 543 l 441 475 l 373 407 l 170 407 l 102 475 m 509 68 l 441 136 l 441 407 l 509 475 l 576 407 l 576 136 l 509 68 m 1017 509 l 983 475 l 882 576 l 882 780 l 983 882 l 1017 848 l 1017 509 m 916 949 l 949 916 l 848 814 l 644 814 l 543 916 l 576 949 l 916 949 m 576 0 l 543 34 l 644 136 l 848 136 l 949 34 l 916 0 l 576 0 m 848 407 l 644 407 l 576 475 l 644 543 l 848 543 l 916 475 l 848 407 z "},"S":{"ha":1085,"x_min":0,"x_max":1017,"o":"m 0 848 l 34 882 l 136 780 l 136 576 l 34 475 l 0 509 l 0 848 m 441 949 l 475 916 l 373 814 l 170 814 l 68 916 l 102 949 l 441 949 m 102 0 l 68 34 l 170 136 l 373 136 l 475 34 l 441 0 l 102 0 m 102 475 l 170 543 l 373 543 l 441 475 l 373 407 l 170 407 l 102 475 m 1017 102 l 983 68 l 882 170 l 882 373 l 983 475 l 1017 441 l 1017 102 m 916 949 l 949 916 l 848 814 l 644 814 l 543 916 l 576 949 l 916 949 m 576 0 l 543 34 l 644 136 l 848 136 l 949 34 l 916 0 l 576 0 m 848 407 l 644 407 l 576 475 l 644 543 l 848 543 l 916 475 l 848 407 z "},"T":{"ha":1085,"x_min":68,"x_max":949,"o":"m 441 949 l 475 916 l 373 814 l 170 814 l 68 916 l 102 949 l 441 949 m 509 475 l 441 543 l 441 814 l 509 882 l 576 814 l 576 543 l 509 475 m 509 68 l 441 136 l 441 407 l 509 475 l 576 407 l 576 136 l 509 68 m 916 949 l 949 916 l 848 814 l 644 814 l 543 916 l 576 949 l 916 949 z "},"U":{"ha":1085,"x_min":0,"x_max":1017,"o":"m 0 441 l 34 475 l 136 373 l 136 170 l 34 68 l 0 102 l 0 441 m 0 848 l 34 882 l 136 780 l 136 576 l 34 475 l 0 509 l 0 848 m 102 0 l 68 34 l 170 136 l 373 136 l 475 34 l 441 0 l 102 0 m 1017 102 l 983 68 l 882 170 l 882 373 l 983 475 l 1017 441 l 1017 102 m 1017 509 l 983 475 l 882 576 l 882 780 l 983 882 l 1017 848 l 1017 509 m 576 0 l 543 34 l 644 136 l 848 136 l 949 34 l 916 0 l 576 0 z "},"V":{"ha":1085,"x_min":0,"x_max":1017,"o":"m 0 441 l 34 475 l 136 373 l 136 170 l 34 68 l 0 102 l 0 441 m 0 848 l 34 882 l 136 780 l 136 576 l 34 475 l 0 509 l 0 848 m 102 0 l 68 34 l 170 136 l 373 136 l 475 34 l 441 0 l 102 0 m 509 68 l 441 136 l 441 407 l 509 475 l 576 407 l 576 136 l 509 68 m 1017 509 l 983 475 l 882 576 l 882 780 l 983 882 l 1017 848 l 1017 509 m 848 407 l 644 407 l 576 475 l 644 543 l 848 543 l 916 475 l 848 407 z "},"W":{"ha":1085,"x_min":0,"x_max":1017,"o":"m 0 441 l 34 475 l 136 373 l 136 170 l 34 68 l 0 102 l 0 441 m 0 848 l 34 882 l 136 780 l 136 576 l 34 475 l 0 509 l 0 848 m 102 0 l 68 34 l 170 136 l 373 136 l 475 34 l 441 0 l 102 0 m 509 475 l 441 543 l 441 814 l 509 882 l 576 814 l 576 543 l 509 475 m 509 68 l 441 136 l 441 407 l 509 475 l 576 407 l 576 136 l 509 68 m 1017 102 l 983 68 l 882 170 l 882 373 l 983 475 l 1017 441 l 1017 102 m 1017 509 l 983 475 l 882 576 l 882 780 l 983 882 l 1017 848 l 1017 509 m 576 0 l 543 34 l 644 136 l 848 136 l 949 34 l 916 0 l 576 0 z "},"X":{"ha":1085,"x_min":0,"x_max":1017,"o":"m 0 848 l 34 882 l 136 780 l 136 576 l 34 475 l 0 509 l 0 848 m 102 475 l 170 543 l 373 543 l 441 475 l 373 407 l 170 407 l 102 475 m 509 475 l 441 543 l 441 814 l 509 882 l 576 814 l 576 543 l 509 475 m 509 68 l 441 136 l 441 407 l 509 475 l 576 407 l 576 136 l 509 68 m 1017 102 l 983 68 l 882 170 l 882 373 l 983 475 l 1017 441 l 1017 102 m 848 407 l 644 407 l 576 475 l 644 543 l 848 543 l 916 475 l 848 407 z "},"Y":{"ha":1085,"x_min":0,"x_max":1017,"o":"m 0 848 l 34 882 l 136 780 l 136 576 l 34 475 l 0 509 l 0 848 m 102 0 l 68 34 l 170 136 l 373 136 l 475 34 l 441 0 l 102 0 m 102 475 l 170 543 l 373 543 l 441 475 l 373 407 l 170 407 l 102 475 m 1017 102 l 983 68 l 882 170 l 882 373 l 983 475 l 1017 441 l 1017 102 m 1017 509 l 983 475 l 882 576 l 882 780 l 983 882 l 1017 848 l 1017 509 m 576 0 l 543 34 l 644 136 l 848 136 l 949 34 l 916 0 l 576 0 m 848 407 l 644 407 l 576 475 l 644 543 l 848 543 l 916 475 l 848 407 z "},"Z":{"ha":1085,"x_min":0,"x_max":1017,"o":"m 0 441 l 34 475 l 136 373 l 136 170 l 34 68 l 0 102 l 0 441 m 441 949 l 475 916 l 373 814 l 170 814 l 68 916 l 102 949 l 441 949 m 102 0 l 68 34 l 170 136 l 373 136 l 475 34 l 441 0 l 102 0 m 102 475 l 170 543 l 373 543 l 441 475 l 373 407 l 170 407 l 102 475 m 1017 509 l 983 475 l 882 576 l 882 780 l 983 882 l 1017 848 l 1017 509 m 916 949 l 949 916 l 848 814 l 644 814 l 543 916 l 576 949 l 916 949 m 576 0 l 543 34 l 644 136 l 848 136 l 949 34 l 916 0 l 576 0 m 848 407 l 644 407 l 576 475 l 644 543 l 848 543 l 916 475 l 848 407 z "},"[":{"ha":610,"x_min":0,"x_max":475,"o":"m 0 441 l 34 475 l 136 373 l 136 170 l 34 68 l 0 102 l 0 441 m 0 848 l 34 882 l 136 780 l 136 576 l 34 475 l 0 509 l 0 848 m 441 949 l 475 916 l 373 814 l 170 814 l 68 916 l 102 949 l 441 949 m 102 0 l 68 34 l 170 136 l 373 136 l 475 34 l 441 0 l 102 0 z "},"\\":{"ha":1085,"x_min":0,"x_max":1017,"o":"m 1017 102 l 983 68 l 882 170 l 882 373 l 983 475 l 1017 441 l 1017 102 m 848 407 l 644 407 l 576 475 l 644 543 l 848 543 l 916 475 l 848 407 m 0 848 l 34 882 l 136 780 l 136 576 l 34 475 l 0 509 l 0 848 m 102 475 l 170 543 l 373 543 l 441 475 l 373 407 l 170 407 l 102 475 z "},"]":{"ha":610,"x_min":68,"x_max":543,"o":"m 441 949 l 475 916 l 373 814 l 170 814 l 68 916 l 102 949 l 441 949 m 543 509 l 509 475 l 407 576 l 407 780 l 509 882 l 543 848 l 543 509 m 543 102 l 509 68 l 407 170 l 407 373 l 509 475 l 543 441 l 543 102 m 102 0 l 68 34 l 170 136 l 373 136 l 475 34 l 441 0 l 102 0 z "},"_":{"ha":1085,"x_min":68,"x_max":949,"o":"m 102 0 l 68 34 l 170 136 l 373 136 l 475 34 l 441 0 l 102 0 m 576 0 l 543 34 l 644 136 l 848 136 l 949 34 l 916 0 l 576 0 z "},"`":{"ha":610,"x_min":407,"x_max":543,"o":"m 543 509 l 509 475 l 407 576 l 407 780 l 509 882 l 543 848 l 543 509 z "},"a":{"ha":610,"x_min":0,"x_max":543,"o":"m 0 441 l 34 475 l 136 373 l 136 170 l 34 68 l 0 102 l 0 441 m 0 848 l 34 882 l 136 780 l 136 576 l 34 475 l 0 509 l 0 848 m 441 949 l 475 916 l 373 814 l 170 814 l 68 916 l 102 949 l 441 949 m 543 509 l 509 475 l 407 576 l 407 780 l 509 882 l 543 848 l 543 509 m 543 102 l 509 68 l 407 170 l 407 373 l 509 475 l 543 441 l 543 102 m 102 475 l 170 543 l 373 543 l 441 475 l 373 407 l 170 407 l 102 475 z "},"b":{"ha":610,"x_min":0,"x_max":543,"o":"m 0 441 l 34 475 l 136 373 l 136 170 l 34 68 l 0 102 l 0 441 m 0 848 l 34 882 l 136 780 l 136 576 l 34 475 l 0 509 l 0 848 m 441 949 l 475 916 l 373 814 l 170 814 l 68 916 l 102 949 l 441 949 m 543 509 l 509 475 l 407 576 l 407 780 l 509 882 l 543 848 l 543 509 m 543 102 l 509 68 l 407 170 l 407 373 l 509 475 l 543 441 l 543 102 m 102 0 l 68 34 l 170 136 l 373 136 l 475 34 l 441 0 l 102 0 m 102 475 l 170 543 l 373 543 l 441 475 l 373 407 l 170 407 l 102 475 z "},"c":{"ha":610,"x_min":0,"x_max":475,"o":"m 0 441 l 34 475 l 136 373 l 136 170 l 34 68 l 0 102 l 0 441 m 0 848 l 34 882 l 136 780 l 136 576 l 34 475 l 0 509 l 0 848 m 441 949 l 475 916 l 373 814 l 170 814 l 68 916 l 102 949 l 441 949 m 102 0 l 68 34 l 170 136 l 373 136 l 475 34 l 441 0 l 102 0 z "},"d":{"ha":610,"x_min":68,"x_max":543,"o":"m 441 949 l 475 916 l 373 814 l 170 814 l 68 916 l 102 949 l 441 949 m 543 509 l 509 475 l 407 576 l 407 780 l 509 882 l 543 848 l 543 509 m 543 102 l 509 68 l 407 170 l 407 373 l 509 475 l 543 441 l 543 102 m 102 0 l 68 34 l 170 136 l 373 136 l 475 34 l 441 0 l 102 0 z "},"e":{"ha":610,"x_min":0,"x_max":475,"o":"m 0 441 l 34 475 l 136 373 l 136 170 l 34 68 l 0 102 l 0 441 m 0 848 l 34 882 l 136 780 l 136 576 l 34 475 l 0 509 l 0 848 m 441 949 l 475 916 l 373 814 l 170 814 l 68 916 l 102 949 l 441 949 m 102 0 l 68 34 l 170 136 l 373 136 l 475 34 l 441 0 l 102 0 m 102 475 l 170 543 l 373 543 l 441 475 l 373 407 l 170 407 l 102 475 z "},"f":{"ha":610,"x_min":0,"x_max":475,"o":"m 0 441 l 34 475 l 136 373 l 136 170 l 34 68 l 0 102 l 0 441 m 0 848 l 34 882 l 136 780 l 136 576 l 34 475 l 0 509 l 0 848 m 441 949 l 475 916 l 373 814 l 170 814 l 68 916 l 102 949 l 441 949 m 102 475 l 170 543 l 373 543 l 441 475 l 373 407 l 170 407 l 102 475 z "},"g":{"ha":610,"x_min":0,"x_max":543,"o":"m 0 441 l 34 475 l 136 373 l 136 170 l 34 68 l 0 102 l 0 441 m 0 848 l 34 882 l 136 780 l 136 576 l 34 475 l 0 509 l 0 848 m 441 949 l 475 916 l 373 814 l 170 814 l 68 916 l 102 949 l 441 949 m 543 102 l 509 68 l 407 170 l 407 373 l 509 475 l 543 441 l 543 102 m 102 0 l 68 34 l 170 136 l 373 136 l 475 34 l 441 0 l 102 0 z "},"h":{"ha":610,"x_min":0,"x_max":543,"o":"m 0 441 l 34 475 l 136 373 l 136 170 l 34 68 l 0 102 l 0 441 m 0 848 l 34 882 l 136 780 l 136 576 l 34 475 l 0 509 l 0 848 m 543 509 l 509 475 l 407 576 l 407 780 l 509 882 l 543 848 l 543 509 m 543 102 l 509 68 l 407 170 l 407 373 l 509 475 l 543 441 l 543 102 m 102 475 l 170 543 l 373 543 l 441 475 l 373 407 l 170 407 l 102 475 z "},"i":{"ha":610,"x_min":407,"x_max":543,"o":"m 543 509 l 509 475 l 407 576 l 407 780 l 509 882 l 543 848 l 543 509 m 543 102 l 509 68 l 407 170 l 407 373 l 509 475 l 543 441 l 543 102 z "},"j":{"ha":610,"x_min":0,"x_max":543,"o":"m 0 441 l 34 475 l 136 373 l 136 170 l 34 68 l 0 102 l 0 441 m 543 509 l 509 475 l 407 576 l 407 780 l 509 882 l 543 848 l 543 509 m 543 102 l 509 68 l 407 170 l 407 373 l 509 475 l 543 441 l 543 102 m 102 0 l 68 34 l 170 136 l 373 136 l 475 34 l 441 0 l 102 0 z "},"k":{"ha":610,"x_min":0,"x_max":543,"o":"m 0 441 l 34 475 l 136 373 l 136 170 l 34 68 l 0 102 l 0 441 m 0 848 l 34 882 l 136 780 l 136 576 l 34 475 l 0 509 l 0 848 m 543 509 l 509 475 l 407 576 l 407 780 l 509 882 l 543 848 l 543 509 m 102 0 l 68 34 l 170 136 l 373 136 l 475 34 l 441 0 l 102 0 m 102 475 l 170 543 l 373 543 l 441 475 l 373 407 l 170 407 l 102 475 z "},"l":{"ha":610,"x_min":0,"x_max":543,"o":"m 0 441 l 34 475 l 136 373 l 136 170 l 34 68 l 0 102 l 0 441 m 0 848 l 34 882 l 136 780 l 136 576 l 34 475 l 0 509 l 0 848 m 543 102 l 509 68 l 407 170 l 407 373 l 509 475 l 543 441 l 543 102 m 102 0 l 68 34 l 170 136 l 373 136 l 475 34 l 441 0 l 102 0 z "},"m":{"ha":610,"x_min":0,"x_max":543,"o":"m 0 848 l 34 882 l 136 780 l 136 576 l 34 475 l 0 509 l 0 848 m 441 949 l 475 916 l 373 814 l 170 814 l 68 916 l 102 949 l 441 949 m 543 509 l 509 475 l 407 576 l 407 780 l 509 882 l 543 848 l 543 509 m 0 441 l 34 475 l 136 373 l 136 170 l 34 68 l 0 102 l 0 441 m 543 102 l 509 68 l 407 170 l 407 373 l 509 475 l 543 441 l 543 102 z "},"n":{"ha":610,"x_min":0,"x_max":543,"o":"m 0 441 l 34 475 l 136 373 l 136 170 l 34 68 l 0 102 l 0 441 m 0 848 l 34 882 l 136 780 l 136 576 l 34 475 l 0 509 l 0 848 m 441 949 l 475 916 l 373 814 l 170 814 l 68 916 l 102 949 l 441 949 m 543 509 l 509 475 l 407 576 l 407 780 l 509 882 l 543 848 l 543 509 m 543 102 l 509 68 l 407 170 l 407 373 l 509 475 l 543 441 l 543 102 z "},"o":{"ha":610,"x_min":0,"x_max":543,"o":"m 0 441 l 34 475 l 136 373 l 136 170 l 34 68 l 0 102 l 0 441 m 0 848 l 34 882 l 136 780 l 136 576 l 34 475 l 0 509 l 0 848 m 441 949 l 475 916 l 373 814 l 170 814 l 68 916 l 102 949 l 441 949 m 543 509 l 509 475 l 407 576 l 407 780 l 509 882 l 543 848 l 543 509 m 543 102 l 509 68 l 407 170 l 407 373 l 509 475 l 543 441 l 543 102 m 102 0 l 68 34 l 170 136 l 373 136 l 475 34 l 441 0 l 102 0 z "},"p":{"ha":610,"x_min":0,"x_max":543,"o":"m 0 441 l 34 475 l 136 373 l 136 170 l 34 68 l 0 102 l 0 441 m 0 848 l 34 882 l 136 780 l 136 576 l 34 475 l 0 509 l 0 848 m 441 949 l 475 916 l 373 814 l 170 814 l 68 916 l 102 949 l 441 949 m 543 509 l 509 475 l 407 576 l 407 780 l 509 882 l 543 848 l 543 509 m 102 475 l 170 543 l 373 543 l 441 475 l 373 407 l 170 407 l 102 475 z "},"q":{"ha":610,"x_min":0,"x_max":543,"o":"m 0 848 l 34 882 l 136 780 l 136 576 l 34 475 l 0 509 l 0 848 m 441 949 l 475 916 l 373 814 l 170 814 l 68 916 l 102 949 l 441 949 m 543 509 l 509 475 l 407 576 l 407 780 l 509 882 l 543 848 l 543 509 m 543 102 l 509 68 l 407 170 l 407 373 l 509 475 l 543 441 l 543 102 m 102 475 l 170 543 l 373 543 l 441 475 l 373 407 l 170 407 l 102 475 z "},"r":{"ha":610,"x_min":0,"x_max":543,"o":"m 0 441 l 34 475 l 136 373 l 136 170 l 34 68 l 0 102 l 0 441 m 0 848 l 34 882 l 136 780 l 136 576 l 34 475 l 0 509 l 0 848 m 441 949 l 475 916 l 373 814 l 170 814 l 68 916 l 102 949 l 441 949 m 543 509 l 509 475 l 407 576 l 407 780 l 509 882 l 543 848 l 543 509 z "},"s":{"ha":610,"x_min":0,"x_max":543,"o":"m 0 848 l 34 882 l 136 780 l 136 576 l 34 475 l 0 509 l 0 848 m 441 949 l 475 916 l 373 814 l 170 814 l 68 916 l 102 949 l 441 949 m 543 102 l 509 68 l 407 170 l 407 373 l 509 475 l 543 441 l 543 102 m 102 0 l 68 34 l 170 136 l 373 136 l 475 34 l 441 0 l 102 0 m 102 475 l 170 543 l 373 543 l 441 475 l 373 407 l 170 407 l 102 475 z "},"t":{"ha":610,"x_min":68,"x_max":543,"o":"m 441 949 l 475 916 l 373 814 l 170 814 l 68 916 l 102 949 l 441 949 m 543 509 l 509 475 l 407 576 l 407 780 l 509 882 l 543 848 l 543 509 m 543 102 l 509 68 l 407 170 l 407 373 l 509 475 l 543 441 l 543 102 z "},"u":{"ha":610,"x_min":0,"x_max":543,"o":"m 0 441 l 34 475 l 136 373 l 136 170 l 34 68 l 0 102 l 0 441 m 0 848 l 34 882 l 136 780 l 136 576 l 34 475 l 0 509 l 0 848 m 543 509 l 509 475 l 407 576 l 407 780 l 509 882 l 543 848 l 543 509 m 543 102 l 509 68 l 407 170 l 407 373 l 509 475 l 543 441 l 543 102 m 102 0 l 68 34 l 170 136 l 373 136 l 475 34 l 441 0 l 102 0 z "},"v":{"ha":610,"x_min":0,"x_max":543,"o":"m 0 441 l 34 475 l 136 373 l 136 170 l 34 68 l 0 102 l 0 441 m 0 848 l 34 882 l 136 780 l 136 576 l 34 475 l 0 509 l 0 848 m 543 509 l 509 475 l 407 576 l 407 780 l 509 882 l 543 848 l 543 509 m 102 475 l 170 543 l 373 543 l 441 475 l 373 407 l 170 407 l 102 475 z "},"w":{"ha":610,"x_min":0,"x_max":543,"o":"m 0 848 l 34 882 l 136 780 l 136 576 l 34 475 l 0 509 l 0 848 m 0 441 l 34 475 l 136 373 l 136 170 l 34 68 l 0 102 l 0 441 m 102 0 l 68 34 l 170 136 l 373 136 l 475 34 l 441 0 l 102 0 m 543 102 l 509 68 l 407 170 l 407 373 l 509 475 l 543 441 l 543 102 m 543 509 l 509 475 l 407 576 l 407 780 l 509 882 l 543 848 l 543 509 m 170 543 l 373 543 l 441 475 l 373 407 l 170 407 l 102 475 l 170 543 z "},"x":{"ha":610,"x_min":0,"x_max":543,"o":"m 0 441 l 34 475 l 136 373 l 136 170 l 34 68 l 0 102 l 0 441 m 0 848 l 34 882 l 136 780 l 136 576 l 34 475 l 0 509 l 0 848 m 543 509 l 509 475 l 407 576 l 407 780 l 509 882 l 543 848 l 543 509 m 543 102 l 509 68 l 407 170 l 407 373 l 509 475 l 543 441 l 543 102 m 102 475 l 170 543 l 373 543 l 441 475 l 373 407 l 170 407 l 102 475 z "},"y":{"ha":610,"x_min":0,"x_max":543,"o":"m 0 848 l 34 882 l 136 780 l 136 576 l 34 475 l 0 509 l 0 848 m 102 0 l 68 34 l 170 136 l 373 136 l 475 34 l 441 0 l 102 0 m 543 102 l 509 68 l 407 170 l 407 373 l 509 475 l 543 441 l 543 102 m 543 509 l 509 475 l 407 576 l 407 780 l 509 882 l 543 848 l 543 509 m 170 543 l 373 543 l 441 475 l 373 407 l 170 407 l 102 475 l 170 543 z "},"z":{"ha":610,"x_min":0,"x_max":543,"o":"m 0 441 l 34 475 l 136 373 l 136 170 l 34 68 l 0 102 l 0 441 m 441 949 l 475 916 l 373 814 l 170 814 l 68 916 l 102 949 l 441 949 m 543 509 l 509 475 l 407 576 l 407 780 l 509 882 l 543 848 l 543 509 m 102 0 l 68 34 l 170 136 l 373 136 l 475 34 l 441 0 l 102 0 m 102 475 l 170 543 l 373 543 l 441 475 l 373 407 l 170 407 l 102 475 z "},"{":{"ha":610,"x_min":0,"x_max":475,"o":"m 0 441 l 34 475 l 136 373 l 136 170 l 34 68 l 0 102 l 0 441 m 0 848 l 34 882 l 136 780 l 136 576 l 34 475 l 0 509 l 0 848 m 441 949 l 475 916 l 373 814 l 170 814 l 68 916 l 102 949 l 441 949 m 102 0 l 68 34 l 170 136 l 373 136 l 475 34 l 441 0 l 102 0 z "},"|":{"ha":610,"x_min":407,"x_max":543,"o":"m 543 509 l 509 475 l 407 576 l 407 780 l 509 882 l 543 848 l 543 509 m 543 102 l 509 68 l 407 170 l 407 373 l 509 475 l 543 441 l 543 102 z "},"}":{"ha":610,"x_min":68,"x_max":543,"o":"m 441 949 l 475 916 l 373 814 l 170 814 l 68 916 l 102 949 l 441 949 m 543 509 l 509 475 l 407 576 l 407 780 l 509 882 l 543 848 l 543 509 m 543 102 l 509 68 l 407 170 l 407 373 l 509 475 l 543 441 l 543 102 m 102 0 l 68 34 l 170 136 l 373 136 l 475 34 l 441 0 l 102 0 z "},"":{"ha":728,"x_min":0,"x_max":0,"o":""},"":{"ha":733,"x_min":0,"x_max":0,"o":""}}}
